<svg id="Layer_1" data-name="Layer 1" xmlns="http://www.w3.org/2000/svg" viewBox="0 0 512 512"><defs><style>.cls-1{fill:#cad8dd;fill-rule:evenodd;}.cls-2{fill:#dde5e8;}.cls-3{fill:#baccd1;}.cls-4{fill:#71c6c4;}.cls-5{fill:#4c9b99;}</style></defs><title>envelope-open-check-flat</title><path class="cls-1" d="M512,224V448a64.11,64.11,0,0,1-64,64H64A64,64,0,0,1,0,448V224a59.91,59.91,0,0,1,.58-8.32,62,62,0,0,1,9.22-25.6A62.37,62.37,0,0,1,25.6,172.81L215.87,14.35a63.28,63.28,0,0,1,80.26,0L486.4,172.81a64.05,64.05,0,0,1,25.15,43.71v.06A57.09,57.09,0,0,1,512,224Z"/><path class="cls-2" d="M192.06,354.25l14.53-11.52c28.61-22.72,70.21-22.72,98.82,0l15.17,12,101.82-83.5V108.81A44.8,44.8,0,0,0,377.6,64H134.4a44.8,44.8,0,0,0-44.8,44.8V270.24Z"/><path class="cls-3" d="M511.55,216.59,341.12,356.36l160.19,127a63.73,63.73,0,0,1-18.37,18.18L316.42,369.41a13.26,13.26,0,0,1-6.34-4.16,19.14,19.14,0,0,1-1.28-1.86l-.06-.13h0L289.47,348c-19.07-15.17-47.87-15.17-66.94,0l-21.18,16.83-2.94,2.3-.06.06-.16.08L29.06,501.57a63.73,63.73,0,0,1-18.37-18.18L171.46,355.84.58,215.69a62,62,0,0,1,9.22-25.6L192.06,339.53,206.59,328c28.61-22.72,70.21-22.72,98.82,0l15.17,12L502.66,190.73a64.22,64.22,0,0,1,8.9,25.79Z"/><circle class="cls-4" cx="256" cy="192.01" r="89.6"/><path class="cls-5" d="M250.88,230.41a12.8,12.8,0,0,1-8.19-3l-20.48-17.07a12.8,12.8,0,1,1,16.39-19.66l9,7.5,23-38.39A12.8,12.8,0,0,1,292.57,173l-30.72,51.2a12.79,12.79,0,0,1-8.84,6A12.36,12.36,0,0,1,250.88,230.41Z"/></svg>